<svg width="24" height="25" viewBox="0 0 24 25" fill="none" xmlns="http://www.w3.org/2000/svg">
    <path d="M20.0306 10.3926L12.5306 17.8926C12.4609 17.9623 12.3782 18.0177 12.2871 18.0554C12.1961 18.0932 12.0985 18.1126 11.9999 18.1126C11.9014 18.1126 11.8038 18.0932 11.7127 18.0554C11.6217 18.0177 11.539 17.9623 11.4693 17.8926L3.9693 10.3926C3.82857 10.2519 3.74951 10.061 3.74951 9.86199C3.74951 9.66297 3.82857 9.47209 3.9693 9.33136C4.11003 9.19063 4.30091 9.11157 4.49993 9.11157C4.69895 9.11157 4.88982 9.19063 5.03055 9.33136L11.9999 16.3017L18.9693 9.33136C19.039 9.26168 19.1217 9.20641 19.2128 9.16869C19.3038 9.13098 19.4014 9.11157 19.4999 9.11157C19.5985 9.11157 19.6961 9.13098 19.7871 9.16869C19.8781 9.20641 19.9609 9.26168 20.0306 9.33136C20.1002 9.40105 20.1555 9.48377 20.1932 9.57482C20.2309 9.66586 20.2503 9.76344 20.2503 9.86199C20.2503 9.96054 20.2309 10.0581 20.1932 10.1492C20.1555 10.2402 20.1002 10.3229 20.0306 10.3926Z" fill="#5B5B5A"/>
</svg>
