<svg width="19" height="19" viewBox="0 0 19 19" fill="none" xmlns="http://www.w3.org/2000/svg">
<path d="M17.375 15.3666H16.25V10.3041L16.4145 10.4687C16.5203 10.5742 16.6636 10.6334 16.813 10.6333C16.9624 10.6332 17.1056 10.5737 17.2112 10.468C17.3167 10.3622 17.3759 10.2189 17.3758 10.0695C17.3757 9.9201 17.3162 9.77687 17.2105 9.67132L10.2952 2.7582C10.0843 2.54738 9.79824 2.42896 9.5 2.42896C9.20176 2.42896 8.91572 2.54738 8.70477 2.7582L1.78953 9.67132C1.68408 9.77687 1.62487 9.91999 1.62494 10.0692C1.625 10.2184 1.68433 10.3615 1.78988 10.4669C1.89543 10.5724 2.03855 10.6316 2.18775 10.6315C2.33695 10.6314 2.48001 10.5721 2.58547 10.4666L2.75 10.3041V15.3666H1.625C1.47582 15.3666 1.33274 15.4259 1.22725 15.5314C1.12176 15.6369 1.0625 15.78 1.0625 15.9291C1.0625 16.0783 1.12176 16.2214 1.22725 16.3269C1.33274 16.4324 1.47582 16.4916 1.625 16.4916H17.375C17.5242 16.4916 17.6673 16.4324 17.7727 16.3269C17.8782 16.2214 17.9375 16.0783 17.9375 15.9291C17.9375 15.78 17.8782 15.6369 17.7727 15.5314C17.6673 15.4259 17.5242 15.3666 17.375 15.3666ZM11.1875 15.3666H7.8125V11.9916C7.8125 11.917 7.84213 11.8455 7.89488 11.7928C7.94762 11.74 8.01916 11.7104 8.09375 11.7104H10.9062C10.9808 11.7104 11.0524 11.74 11.1051 11.7928C11.1579 11.8455 11.1875 11.917 11.1875 11.9916V15.3666Z" fill="#333332"/>
</svg>
