<svg width="18" height="18" viewBox="0 0 18 18" fill="none" xmlns="http://www.w3.org/2000/svg">
    <path d="M16 11.0769C15.9987 12.3005 15.512 13.4736 14.6468 14.3389C13.7815 15.2041 12.6084 15.6908 11.3848 15.6921H5.03879C4.88579 15.6921 4.73905 15.6314 4.63086 15.5232C4.52267 15.415 4.46189 15.2682 4.46189 15.1152C4.46189 14.9622 4.52267 14.8155 4.63086 14.7073C4.73905 14.5991 4.88579 14.5383 5.03879 14.5383H11.3848C12.3028 14.5383 13.1832 14.1736 13.8324 13.5245C14.4815 12.8753 14.8462 11.9949 14.8462 11.0769C14.8462 10.1589 14.4815 9.27843 13.8324 8.62929C13.1832 7.98014 12.3028 7.61546 11.3848 7.61546H5.6157V10.5C5.61579 10.6142 5.582 10.7258 5.51862 10.8207C5.45523 10.9157 5.3651 10.9897 5.25963 11.0334C5.15416 11.0771 5.03809 11.0885 4.92612 11.0662C4.81415 11.0439 4.71132 10.9889 4.63063 10.9081L1.1692 7.44671C1.11556 7.39313 1.07301 7.32951 1.04398 7.25947C1.01494 7.18944 1 7.11436 1 7.03855C1 6.96274 1.01494 6.88766 1.04398 6.81763C1.07301 6.74759 1.11556 6.68397 1.1692 6.63039L4.63063 3.16896C4.71132 3.08818 4.81415 3.03316 4.92612 3.01087C5.03809 2.98857 5.15416 2.99999 5.25963 3.0437C5.3651 3.0874 5.45523 3.16141 5.51862 3.25637C5.582 3.35132 5.61579 3.46295 5.6157 3.57712V6.46164H11.3848C12.6084 6.46298 13.7815 6.94966 14.6468 7.81489C15.512 8.68013 15.9987 9.85326 16 11.0769Z" fill="#333332"/>
</svg>
